
<global>
amp_veltrack=0
ampeg_attack=0.001
ampeg_release=1.5
</global>

<group>
group_label=RR2
seq_length=4
seq_position=1

<region>
hivel=123
key=G3
lovel=57
offset=5286
sample=Tenors_Line_Drum_1_Dreads_Hit_F_D4_RR2.opus
xf_velcurve=gain
xfin_hivel=77
xfin_lovel=57
xfout_hivel=123
xfout_lovel=103
</region>

<region>
hivel=127
key=G3
lovel=83
offset=2523
sample=Tenors_Line_Drum_1_Dreads_Hit_FF_D4_RR2.opus
xf_velcurve=gain
xfin_hivel=103
xfin_lovel=83
</region>

<region>
hivel=97
key=G3
lovel=31
offset=4013
sample=Tenors_Line_Drum_1_Dreads_Hit_MF_D4_RR2.opus
xf_velcurve=gain
xfin_hivel=51
xfin_lovel=31
xfout_hivel=97
xfout_lovel=77
</region>

<region>
hivel=71
key=G3
lovel=5
offset=3538
sample=Tenors_Line_Drum_1_Dreads_Hit_MP_D4_RR2.opus
xf_velcurve=gain
xfin_hivel=25
xfin_lovel=5
xfout_hivel=71
xfout_lovel=51
</region>

<region>
hivel=45
key=G3
lovel=0
offset=5019
sample=Tenors_Line_Drum_1_Dreads_Hit_P_D4_RR2.opus
xf_velcurve=gain
xfout_hivel=45
xfout_lovel=25
</region>

<region>
hivel=123
key=F#3
lovel=57
offset=759
sample=Tenors_Line_Drum_2_Dreads_Hit_F_D4_RR2.opus
xf_velcurve=gain
xfin_hivel=77
xfin_lovel=57
xfout_hivel=123
xfout_lovel=103
</region>

<region>
hivel=127
key=F#3
lovel=83
offset=2342
sample=Tenors_Line_Drum_2_Dreads_Hit_FF_D4_RR2.opus
xf_velcurve=gain
xfin_hivel=103
xfin_lovel=83
</region>

<region>
hivel=97
key=F#3
lovel=31
offset=5411
sample=Tenors_Line_Drum_2_Dreads_Hit_MF_D4_RR2.opus
xf_velcurve=gain
xfin_hivel=51
xfin_lovel=31
xfout_hivel=97
xfout_lovel=77
</region>

<region>
hivel=71
key=F#3
lovel=5
offset=5391
sample=Tenors_Line_Drum_2_Dreads_Hit_MP_D4_RR2.opus
xf_velcurve=gain
xfin_hivel=25
xfin_lovel=5
xfout_hivel=71
xfout_lovel=51
</region>

<region>
hivel=45
key=F#3
lovel=0
offset=5005
sample=Tenors_Line_Drum_2_Dreads_Hit_P_D4_RR2.opus
xf_velcurve=gain
xfout_hivel=45
xfout_lovel=25
</region>

<region>
hivel=123
key=F3
lovel=57
offset=3747
sample=Tenors_Line_Drum_3_Dreads_Hit_F_D4_RR2.opus
xf_velcurve=gain
xfin_hivel=77
xfin_lovel=57
xfout_hivel=123
xfout_lovel=103
</region>

<region>
hivel=127
key=F3
lovel=83
offset=706
sample=Tenors_Line_Drum_3_Dreads_Hit_FF_D4_RR2.opus
xf_velcurve=gain
xfin_hivel=103
xfin_lovel=83
</region>

<region>
hivel=97
key=F3
lovel=31
offset=3592
sample=Tenors_Line_Drum_3_Dreads_Hit_MF_D4_RR2.opus
xf_velcurve=gain
xfin_hivel=51
xfin_lovel=31
xfout_hivel=97
xfout_lovel=77
</region>

<region>
hivel=71
key=F3
lovel=5
offset=5407
sample=Tenors_Line_Drum_3_Dreads_Hit_MP_D4_RR2.opus
xf_velcurve=gain
xfin_hivel=25
xfin_lovel=5
xfout_hivel=71
xfout_lovel=51
</region>

<region>
hivel=45
key=F3
lovel=0
offset=6225
sample=Tenors_Line_Drum_3_Dreads_Hit_P_D4_RR2.opus
xf_velcurve=gain
xfout_hivel=45
xfout_lovel=25
</region>

<region>
hivel=123
key=E3
lovel=57
offset=1610
sample=Tenors_Line_Drum_4_Dreads_Hit_F_D4_RR2.opus
xf_velcurve=gain
xfin_hivel=77
xfin_lovel=57
xfout_hivel=123
xfout_lovel=103
</region>

<region>
hivel=127
key=E3
lovel=83
offset=751
sample=Tenors_Line_Drum_4_Dreads_Hit_FF_D4_RR2.opus
xf_velcurve=gain
xfin_hivel=103
xfin_lovel=83
</region>

<region>
hivel=97
key=E3
lovel=31
offset=3460
sample=Tenors_Line_Drum_4_Dreads_Hit_MF_D4_RR2.opus
xf_velcurve=gain
xfin_hivel=51
xfin_lovel=31
xfout_hivel=97
xfout_lovel=77
</region>

<region>
hivel=71
key=E3
lovel=5
offset=3063
sample=Tenors_Line_Drum_4_Dreads_Hit_MP_D4_RR2.opus
xf_velcurve=gain
xfin_hivel=25
xfin_lovel=5
xfout_hivel=71
xfout_lovel=51
</region>

<region>
hivel=45
key=E3
lovel=0
offset=3725
sample=Tenors_Line_Drum_4_Dreads_Hit_P_D4_RR2.opus
xf_velcurve=gain
xfout_hivel=45
xfout_lovel=25
</region>

<region>
hivel=123
key=D#3
lovel=57
offset=723
sample=Tenors_Line_Drum_5_Dreads_Hit_F_D4_RR2.opus
xf_velcurve=gain
xfin_hivel=77
xfin_lovel=57
xfout_hivel=123
xfout_lovel=103
</region>

<region>
hivel=127
key=D#3
lovel=83
offset=829
sample=Tenors_Line_Drum_5_Dreads_Hit_FF_D4_RR2.opus
xf_velcurve=gain
xfin_hivel=103
xfin_lovel=83
</region>

<region>
hivel=97
key=D#3
lovel=31
offset=2921
sample=Tenors_Line_Drum_5_Dreads_Hit_MF_D4_RR2.opus
xf_velcurve=gain
xfin_hivel=51
xfin_lovel=31
xfout_hivel=97
xfout_lovel=77
</region>

<region>
hivel=71
key=D#3
lovel=5
offset=3508
sample=Tenors_Line_Drum_5_Dreads_Hit_MP_D4_RR2.opus
xf_velcurve=gain
xfin_hivel=25
xfin_lovel=5
xfout_hivel=71
xfout_lovel=51
</region>

<region>
hivel=45
key=D#3
lovel=0
offset=2881
sample=Tenors_Line_Drum_5_Dreads_Hit_P_D4_RR2.opus
xf_velcurve=gain
xfout_hivel=45
xfout_lovel=25
</region>

<region>
hivel=123
key=D3
lovel=57
offset=819
sample=Tenors_Line_Drum_6_Dreads_Hit_F_D4_RR2.opus
xf_velcurve=gain
xfin_hivel=77
xfin_lovel=57
xfout_hivel=123
xfout_lovel=103
</region>

<region>
hivel=127
key=D3
lovel=83
offset=791
sample=Tenors_Line_Drum_6_Dreads_Hit_FF_D4_RR2.opus
xf_velcurve=gain
xfin_hivel=103
xfin_lovel=83
</region>

<region>
hivel=97
key=D3
lovel=31
offset=3364
sample=Tenors_Line_Drum_6_Dreads_Hit_MF_D4_RR2.opus
xf_velcurve=gain
xfin_hivel=51
xfin_lovel=31
xfout_hivel=97
xfout_lovel=77
</region>

<region>
hivel=71
key=D3
lovel=5
offset=593
sample=Tenors_Line_Drum_6_Dreads_Hit_MP_D4_RR2.opus
xf_velcurve=gain
xfin_hivel=25
xfin_lovel=5
xfout_hivel=71
xfout_lovel=51
</region>

<region>
hivel=45
key=D3
lovel=0
sample=Tenors_Line_Drum_6_Dreads_Hit_P_D4_RR2.opus
xf_velcurve=gain
xfout_hivel=45
xfout_lovel=25
</region>
</group>

<group>
group_label=RR4
seq_length=4
seq_position=2

<region>
hivel=123
key=G3
lovel=57
offset=5145
sample=Tenors_Line_Drum_1_Dreads_Hit_F_D4_RR4.opus
xf_velcurve=gain
xfin_hivel=77
xfin_lovel=57
xfout_hivel=123
xfout_lovel=103
</region>

<region>
hivel=127
key=G3
lovel=83
offset=810
sample=Tenors_Line_Drum_1_Dreads_Hit_FF_D4_RR4.opus
xf_velcurve=gain
xfin_hivel=103
xfin_lovel=83
</region>

<region>
hivel=97
key=G3
lovel=31
offset=3700
sample=Tenors_Line_Drum_1_Dreads_Hit_MF_D4_RR4.opus
xf_velcurve=gain
xfin_hivel=51
xfin_lovel=31
xfout_hivel=97
xfout_lovel=77
</region>

<region>
hivel=71
key=G3
lovel=5
offset=3819
sample=Tenors_Line_Drum_1_Dreads_Hit_MP_D4_RR4.opus
xf_velcurve=gain
xfin_hivel=25
xfin_lovel=5
xfout_hivel=71
xfout_lovel=51
</region>

<region>
hivel=45
key=G3
lovel=0
offset=4109
sample=Tenors_Line_Drum_1_Dreads_Hit_P_D4_RR4.opus
xf_velcurve=gain
xfout_hivel=45
xfout_lovel=25
</region>

<region>
hivel=123
key=F#3
lovel=57
offset=749
sample=Tenors_Line_Drum_2_Dreads_Hit_F_D4_RR4.opus
xf_velcurve=gain
xfin_hivel=77
xfin_lovel=57
xfout_hivel=123
xfout_lovel=103
</region>

<region>
hivel=127
key=F#3
lovel=83
offset=708
sample=Tenors_Line_Drum_2_Dreads_Hit_FF_D4_RR4.opus
xf_velcurve=gain
xfin_hivel=103
xfin_lovel=83
</region>

<region>
hivel=97
key=F#3
lovel=31
offset=5636
sample=Tenors_Line_Drum_2_Dreads_Hit_MF_D4_RR4.opus
xf_velcurve=gain
xfin_hivel=51
xfin_lovel=31
xfout_hivel=97
xfout_lovel=77
</region>

<region>
hivel=71
key=F#3
lovel=5
offset=3458
sample=Tenors_Line_Drum_2_Dreads_Hit_MP_D4_RR4.opus
xf_velcurve=gain
xfin_hivel=25
xfin_lovel=5
xfout_hivel=71
xfout_lovel=51
</region>

<region>
hivel=45
key=F#3
lovel=0
offset=3933
sample=Tenors_Line_Drum_2_Dreads_Hit_P_D4_RR4.opus
xf_velcurve=gain
xfout_hivel=45
xfout_lovel=25
</region>

<region>
hivel=123
key=F3
lovel=57
offset=717
sample=Tenors_Line_Drum_3_Dreads_Hit_F_D4_RR4.opus
xf_velcurve=gain
xfin_hivel=77
xfin_lovel=57
xfout_hivel=123
xfout_lovel=103
</region>

<region>
hivel=127
key=F3
lovel=83
offset=597
sample=Tenors_Line_Drum_3_Dreads_Hit_FF_D4_RR4.opus
xf_velcurve=gain
xfin_hivel=103
xfin_lovel=83
</region>

<region>
hivel=97
key=F3
lovel=31
offset=4255
sample=Tenors_Line_Drum_3_Dreads_Hit_MF_D4_RR4.opus
xf_velcurve=gain
xfin_hivel=51
xfin_lovel=31
xfout_hivel=97
xfout_lovel=77
</region>

<region>
hivel=71
key=F3
lovel=5
offset=2527
sample=Tenors_Line_Drum_3_Dreads_Hit_MP_D4_RR4.opus
xf_velcurve=gain
xfin_hivel=25
xfin_lovel=5
xfout_hivel=71
xfout_lovel=51
</region>

<region>
hivel=45
key=F3
lovel=0
offset=5649
sample=Tenors_Line_Drum_3_Dreads_Hit_P_D4_RR4.opus
xf_velcurve=gain
xfout_hivel=45
xfout_lovel=25
</region>

<region>
hivel=123
key=E3
lovel=57
offset=743
sample=Tenors_Line_Drum_4_Dreads_Hit_F_D4_RR4.opus
xf_velcurve=gain
xfin_hivel=77
xfin_lovel=57
xfout_hivel=123
xfout_lovel=103
</region>

<region>
hivel=127
key=E3
lovel=83
offset=755
sample=Tenors_Line_Drum_4_Dreads_Hit_FF_D4_RR4.opus
xf_velcurve=gain
xfin_hivel=103
xfin_lovel=83
</region>

<region>
hivel=97
key=E3
lovel=31
offset=4248
sample=Tenors_Line_Drum_4_Dreads_Hit_MF_D4_RR4.opus
xf_velcurve=gain
xfin_hivel=51
xfin_lovel=31
xfout_hivel=97
xfout_lovel=77
</region>

<region>
hivel=71
key=E3
lovel=5
offset=3404
sample=Tenors_Line_Drum_4_Dreads_Hit_MP_D4_RR4.opus
xf_velcurve=gain
xfin_hivel=25
xfin_lovel=5
xfout_hivel=71
xfout_lovel=51
</region>

<region>
hivel=45
key=E3
lovel=0
offset=3941
sample=Tenors_Line_Drum_4_Dreads_Hit_P_D4_RR4.opus
xf_velcurve=gain
xfout_hivel=45
xfout_lovel=25
</region>

<region>
hivel=123
key=D#3
lovel=57
offset=1706
sample=Tenors_Line_Drum_5_Dreads_Hit_F_D4_RR4.opus
xf_velcurve=gain
xfin_hivel=77
xfin_lovel=57
xfout_hivel=123
xfout_lovel=103
</region>

<region>
hivel=127
key=D#3
lovel=83
offset=808
sample=Tenors_Line_Drum_5_Dreads_Hit_FF_D4_RR4.opus
xf_velcurve=gain
xfin_hivel=103
xfin_lovel=83
</region>

<region>
hivel=97
key=D#3
lovel=31
offset=3478
sample=Tenors_Line_Drum_5_Dreads_Hit_MF_D4_RR4.opus
xf_velcurve=gain
xfin_hivel=51
xfin_lovel=31
xfout_hivel=97
xfout_lovel=77
</region>

<region>
hivel=71
key=D#3
lovel=5
offset=4973
sample=Tenors_Line_Drum_5_Dreads_Hit_MP_D4_RR4.opus
xf_velcurve=gain
xfin_hivel=25
xfin_lovel=5
xfout_hivel=71
xfout_lovel=51
</region>

<region>
hivel=45
key=D#3
lovel=0
offset=3075
sample=Tenors_Line_Drum_5_Dreads_Hit_P_D4_RR4.opus
xf_velcurve=gain
xfout_hivel=45
xfout_lovel=25
</region>

<region>
hivel=123
key=D3
lovel=57
offset=815
sample=Tenors_Line_Drum_6_Dreads_Hit_F_D4_RR4.opus
xf_velcurve=gain
xfin_hivel=77
xfin_lovel=57
xfout_hivel=123
xfout_lovel=103
</region>

<region>
hivel=127
key=D3
lovel=83
offset=720
sample=Tenors_Line_Drum_6_Dreads_Hit_FF_D4_RR4.opus
xf_velcurve=gain
xfin_hivel=103
xfin_lovel=83
</region>

<region>
hivel=97
key=D3
lovel=31
offset=5059
sample=Tenors_Line_Drum_6_Dreads_Hit_MF_D4_RR4.opus
xf_velcurve=gain
xfin_hivel=51
xfin_lovel=31
xfout_hivel=97
xfout_lovel=77
</region>

<region>
hivel=71
key=D3
lovel=5
offset=1352
sample=Tenors_Line_Drum_6_Dreads_Hit_MP_D4_RR4.opus
xf_velcurve=gain
xfin_hivel=25
xfin_lovel=5
xfout_hivel=71
xfout_lovel=51
</region>

<region>
hivel=45
key=D3
lovel=0
offset=1003
sample=Tenors_Line_Drum_6_Dreads_Hit_P_D4_RR4.opus
xf_velcurve=gain
xfout_hivel=45
xfout_lovel=25
</region>
</group>

<group>
group_label=RR6
seq_length=4
seq_position=3

<region>
hivel=123
key=G3
lovel=57
offset=4673
sample=Tenors_Line_Drum_1_Dreads_Hit_F_D4_RR6.opus
xf_velcurve=gain
xfin_hivel=77
xfin_lovel=57
xfout_hivel=123
xfout_lovel=103
</region>

<region>
hivel=127
key=G3
lovel=83
offset=817
sample=Tenors_Line_Drum_1_Dreads_Hit_FF_D4_RR6.opus
xf_velcurve=gain
xfin_hivel=103
xfin_lovel=83
</region>

<region>
hivel=97
key=G3
lovel=31
offset=4069
sample=Tenors_Line_Drum_1_Dreads_Hit_MF_D4_RR6.opus
xf_velcurve=gain
xfin_hivel=51
xfin_lovel=31
xfout_hivel=97
xfout_lovel=77
</region>

<region>
hivel=71
key=G3
lovel=5
offset=3663
sample=Tenors_Line_Drum_1_Dreads_Hit_MP_D4_RR6.opus
xf_velcurve=gain
xfin_hivel=25
xfin_lovel=5
xfout_hivel=71
xfout_lovel=51
</region>

<region>
hivel=45
key=G3
lovel=0
offset=3032
sample=Tenors_Line_Drum_1_Dreads_Hit_P_D4_RR6.opus
xf_velcurve=gain
xfout_hivel=45
xfout_lovel=25
</region>

<region>
hivel=123
key=F#3
lovel=57
offset=739
sample=Tenors_Line_Drum_2_Dreads_Hit_F_D4_RR6.opus
xf_velcurve=gain
xfin_hivel=77
xfin_lovel=57
xfout_hivel=123
xfout_lovel=103
</region>

<region>
hivel=127
key=F#3
lovel=83
offset=713
sample=Tenors_Line_Drum_2_Dreads_Hit_FF_D4_RR6.opus
xf_velcurve=gain
xfin_hivel=103
xfin_lovel=83
</region>

<region>
hivel=97
key=F#3
lovel=31
offset=5259
sample=Tenors_Line_Drum_2_Dreads_Hit_MF_D4_RR6.opus
xf_velcurve=gain
xfin_hivel=51
xfin_lovel=31
xfout_hivel=97
xfout_lovel=77
</region>

<region>
hivel=71
key=F#3
lovel=5
offset=3466
sample=Tenors_Line_Drum_2_Dreads_Hit_MP_D4_RR6.opus
xf_velcurve=gain
xfin_hivel=25
xfin_lovel=5
xfout_hivel=71
xfout_lovel=51
</region>

<region>
hivel=45
key=F#3
lovel=0
offset=3394
sample=Tenors_Line_Drum_2_Dreads_Hit_P_D4_RR6.opus
xf_velcurve=gain
xfout_hivel=45
xfout_lovel=25
</region>

<region>
hivel=123
key=F3
lovel=57
offset=707
sample=Tenors_Line_Drum_3_Dreads_Hit_F_D4_RR6.opus
xf_velcurve=gain
xfin_hivel=77
xfin_lovel=57
xfout_hivel=123
xfout_lovel=103
</region>

<region>
hivel=127
key=F3
lovel=83
offset=752
sample=Tenors_Line_Drum_3_Dreads_Hit_FF_D4_RR6.opus
xf_velcurve=gain
xfin_hivel=103
xfin_lovel=83
</region>

<region>
hivel=97
key=F3
lovel=31
offset=3498
sample=Tenors_Line_Drum_3_Dreads_Hit_MF_D4_RR6.opus
xf_velcurve=gain
xfin_hivel=51
xfin_lovel=31
xfout_hivel=97
xfout_lovel=77
</region>

<region>
hivel=71
key=F3
lovel=5
offset=3629
sample=Tenors_Line_Drum_3_Dreads_Hit_MP_D4_RR6.opus
xf_velcurve=gain
xfin_hivel=25
xfin_lovel=5
xfout_hivel=71
xfout_lovel=51
</region>

<region>
hivel=45
key=F3
lovel=0
offset=4944
sample=Tenors_Line_Drum_3_Dreads_Hit_P_D4_RR6.opus
xf_velcurve=gain
xfout_hivel=45
xfout_lovel=25
</region>

<region>
hivel=123
key=E3
lovel=57
offset=3828
sample=Tenors_Line_Drum_4_Dreads_Hit_F_D4_RR6.opus
xf_velcurve=gain
xfin_hivel=77
xfin_lovel=57
xfout_hivel=123
xfout_lovel=103
</region>

<region>
hivel=127
key=E3
lovel=83
offset=755
sample=Tenors_Line_Drum_4_Dreads_Hit_FF_D4_RR6.opus
xf_velcurve=gain
xfin_hivel=103
xfin_lovel=83
</region>

<region>
hivel=97
key=E3
lovel=31
offset=4414
sample=Tenors_Line_Drum_4_Dreads_Hit_MF_D4_RR6.opus
xf_velcurve=gain
xfin_hivel=51
xfin_lovel=31
xfout_hivel=97
xfout_lovel=77
</region>

<region>
hivel=71
key=E3
lovel=5
offset=3451
sample=Tenors_Line_Drum_4_Dreads_Hit_MP_D4_RR6.opus
xf_velcurve=gain
xfin_hivel=25
xfin_lovel=5
xfout_hivel=71
xfout_lovel=51
</region>

<region>
hivel=45
key=E3
lovel=0
offset=3639
sample=Tenors_Line_Drum_4_Dreads_Hit_P_D4_RR6.opus
xf_velcurve=gain
xfout_hivel=45
xfout_lovel=25
</region>

<region>
hivel=123
key=D#3
lovel=57
offset=6356
sample=Tenors_Line_Drum_5_Dreads_Hit_F_D4_RR6.opus
xf_velcurve=gain
xfin_hivel=77
xfin_lovel=57
xfout_hivel=123
xfout_lovel=103
</region>

<region>
hivel=127
key=D#3
lovel=83
offset=747
sample=Tenors_Line_Drum_5_Dreads_Hit_FF_D4_RR6.opus
xf_velcurve=gain
xfin_hivel=103
xfin_lovel=83
</region>

<region>
hivel=97
key=D#3
lovel=31
offset=2972
sample=Tenors_Line_Drum_5_Dreads_Hit_MF_D4_RR6.opus
xf_velcurve=gain
xfin_hivel=51
xfin_lovel=31
xfout_hivel=97
xfout_lovel=77
</region>

<region>
hivel=71
key=D#3
lovel=5
offset=4807
sample=Tenors_Line_Drum_5_Dreads_Hit_MP_D4_RR6.opus
xf_velcurve=gain
xfin_hivel=25
xfin_lovel=5
xfout_hivel=71
xfout_lovel=51
</region>

<region>
hivel=45
key=D#3
lovel=0
offset=4560
sample=Tenors_Line_Drum_5_Dreads_Hit_P_D4_RR6.opus
xf_velcurve=gain
xfout_hivel=45
xfout_lovel=25
</region>

<region>
hivel=123
key=D3
lovel=57
offset=939
sample=Tenors_Line_Drum_6_Dreads_Hit_F_D4_RR6.opus
xf_velcurve=gain
xfin_hivel=77
xfin_lovel=57
xfout_hivel=123
xfout_lovel=103
</region>

<region>
hivel=127
key=D3
lovel=83
offset=798
sample=Tenors_Line_Drum_6_Dreads_Hit_FF_D4_RR6.opus
xf_velcurve=gain
xfin_hivel=103
xfin_lovel=83
</region>

<region>
hivel=97
key=D3
lovel=31
offset=3590
sample=Tenors_Line_Drum_6_Dreads_Hit_MF_D4_RR6.opus
xf_velcurve=gain
xfin_hivel=51
xfin_lovel=31
xfout_hivel=97
xfout_lovel=77
</region>

<region>
hivel=71
key=D3
lovel=5
offset=1846
sample=Tenors_Line_Drum_6_Dreads_Hit_MP_D4_RR6.opus
xf_velcurve=gain
xfin_hivel=25
xfin_lovel=5
xfout_hivel=71
xfout_lovel=51
</region>

<region>
hivel=45
key=D3
lovel=0
sample=Tenors_Line_Drum_6_Dreads_Hit_P_D4_RR6.opus
xf_velcurve=gain
xfout_hivel=45
xfout_lovel=25
</region>
</group>

<group>
group_label=RR8
seq_length=4
seq_position=4

<region>
hivel=123
key=G3
lovel=57
offset=2540
sample=Tenors_Line_Drum_1_Dreads_Hit_F_D4_RR8.opus
xf_velcurve=gain
xfin_hivel=77
xfin_lovel=57
xfout_hivel=123
xfout_lovel=103
</region>

<region>
hivel=127
key=G3
lovel=83
offset=805
sample=Tenors_Line_Drum_1_Dreads_Hit_FF_D4_RR8.opus
xf_velcurve=gain
xfin_hivel=103
xfin_lovel=83
</region>

<region>
hivel=97
key=G3
lovel=31
offset=4556
sample=Tenors_Line_Drum_1_Dreads_Hit_MF_D4_RR8.opus
xf_velcurve=gain
xfin_hivel=51
xfin_lovel=31
xfout_hivel=97
xfout_lovel=77
</region>

<region>
hivel=71
key=G3
lovel=5
offset=3747
sample=Tenors_Line_Drum_1_Dreads_Hit_MP_D4_RR8.opus
xf_velcurve=gain
xfin_hivel=25
xfin_lovel=5
xfout_hivel=71
xfout_lovel=51
</region>

<region>
hivel=45
key=G3
lovel=0
offset=3527
sample=Tenors_Line_Drum_1_Dreads_Hit_P_D4_RR8.opus
xf_velcurve=gain
xfout_hivel=45
xfout_lovel=25
</region>

<region>
hivel=123
key=F#3
lovel=57
offset=708
sample=Tenors_Line_Drum_2_Dreads_Hit_F_D4_RR8.opus
xf_velcurve=gain
xfin_hivel=77
xfin_lovel=57
xfout_hivel=123
xfout_lovel=103
</region>

<region>
hivel=127
key=F#3
lovel=83
offset=812
sample=Tenors_Line_Drum_2_Dreads_Hit_FF_D4_RR8.opus
xf_velcurve=gain
xfin_hivel=103
xfin_lovel=83
</region>

<region>
hivel=97
key=F#3
lovel=31
offset=5352
sample=Tenors_Line_Drum_2_Dreads_Hit_MF_D4_RR8.opus
xf_velcurve=gain
xfin_hivel=51
xfin_lovel=31
xfout_hivel=97
xfout_lovel=77
</region>

<region>
hivel=71
key=F#3
lovel=5
offset=3745
sample=Tenors_Line_Drum_2_Dreads_Hit_MP_D4_RR8.opus
xf_velcurve=gain
xfin_hivel=25
xfin_lovel=5
xfout_hivel=71
xfout_lovel=51
</region>

<region>
hivel=45
key=F#3
lovel=0
offset=4348
sample=Tenors_Line_Drum_2_Dreads_Hit_P_D4_RR8.opus
xf_velcurve=gain
xfout_hivel=45
xfout_lovel=25
</region>

<region>
hivel=123
key=F3
lovel=57
offset=3419
sample=Tenors_Line_Drum_3_Dreads_Hit_F_D4_RR8.opus
xf_velcurve=gain
xfin_hivel=77
xfin_lovel=57
xfout_hivel=123
xfout_lovel=103
</region>

<region>
hivel=127
key=F3
lovel=83
offset=802
sample=Tenors_Line_Drum_3_Dreads_Hit_FF_D4_RR8.opus
xf_velcurve=gain
xfin_hivel=103
xfin_lovel=83
</region>

<region>
hivel=97
key=F3
lovel=31
offset=2749
sample=Tenors_Line_Drum_3_Dreads_Hit_MF_D4_RR8.opus
xf_velcurve=gain
xfin_hivel=51
xfin_lovel=31
xfout_hivel=97
xfout_lovel=77
</region>

<region>
hivel=71
key=F3
lovel=5
offset=3480
sample=Tenors_Line_Drum_3_Dreads_Hit_MP_D4_RR8.opus
xf_velcurve=gain
xfin_hivel=25
xfin_lovel=5
xfout_hivel=71
xfout_lovel=51
</region>

<region>
hivel=45
key=F3
lovel=0
offset=4689
sample=Tenors_Line_Drum_3_Dreads_Hit_P_D4_RR8.opus
xf_velcurve=gain
xfout_hivel=45
xfout_lovel=25
</region>

<region>
hivel=123
key=E3
lovel=57
offset=2060
sample=Tenors_Line_Drum_4_Dreads_Hit_F_D4_RR8.opus
xf_velcurve=gain
xfin_hivel=77
xfin_lovel=57
xfout_hivel=123
xfout_lovel=103
</region>

<region>
hivel=127
key=E3
lovel=83
offset=2689
sample=Tenors_Line_Drum_4_Dreads_Hit_FF_D4_RR8.opus
xf_velcurve=gain
xfin_hivel=103
xfin_lovel=83
</region>

<region>
hivel=97
key=E3
lovel=31
offset=4560
sample=Tenors_Line_Drum_4_Dreads_Hit_MF_D4_RR8.opus
xf_velcurve=gain
xfin_hivel=51
xfin_lovel=31
xfout_hivel=97
xfout_lovel=77
</region>

<region>
hivel=71
key=E3
lovel=5
offset=4316
sample=Tenors_Line_Drum_4_Dreads_Hit_MP_D4_RR8.opus
xf_velcurve=gain
xfin_hivel=25
xfin_lovel=5
xfout_hivel=71
xfout_lovel=51
</region>

<region>
hivel=45
key=E3
lovel=0
offset=3097
sample=Tenors_Line_Drum_4_Dreads_Hit_P_D4_RR8.opus
xf_velcurve=gain
xfout_hivel=45
xfout_lovel=25
</region>

<region>
hivel=123
key=D#3
lovel=57
offset=6353
sample=Tenors_Line_Drum_5_Dreads_Hit_F_D4_RR8.opus
xf_velcurve=gain
xfin_hivel=77
xfin_lovel=57
xfout_hivel=123
xfout_lovel=103
</region>

<region>
hivel=127
key=D#3
lovel=83
offset=688
sample=Tenors_Line_Drum_5_Dreads_Hit_FF_D4_RR8.opus
xf_velcurve=gain
xfin_hivel=103
xfin_lovel=83
</region>

<region>
hivel=97
key=D#3
lovel=31
offset=4239
sample=Tenors_Line_Drum_5_Dreads_Hit_MF_D4_RR8.opus
xf_velcurve=gain
xfin_hivel=51
xfin_lovel=31
xfout_hivel=97
xfout_lovel=77
</region>

<region>
hivel=71
key=D#3
lovel=5
offset=5936
sample=Tenors_Line_Drum_5_Dreads_Hit_MP_D4_RR8.opus
xf_velcurve=gain
xfin_hivel=25
xfin_lovel=5
xfout_hivel=71
xfout_lovel=51
</region>

<region>
hivel=45
key=D#3
lovel=0
offset=3794
sample=Tenors_Line_Drum_5_Dreads_Hit_P_D4_RR8.opus
xf_velcurve=gain
xfout_hivel=45
xfout_lovel=25
</region>

<region>
hivel=123
key=D3
lovel=57
offset=780
sample=Tenors_Line_Drum_6_Dreads_Hit_F_D4_RR8.opus
xf_velcurve=gain
xfin_hivel=77
xfin_lovel=57
xfout_hivel=123
xfout_lovel=103
</region>

<region>
hivel=127
key=D3
lovel=83
offset=804
sample=Tenors_Line_Drum_6_Dreads_Hit_FF_D4_RR8.opus
xf_velcurve=gain
xfin_hivel=103
xfin_lovel=83
</region>

<region>
hivel=97
key=D3
lovel=31
offset=3418
sample=Tenors_Line_Drum_6_Dreads_Hit_MF_D4_RR8.opus
xf_velcurve=gain
xfin_hivel=51
xfin_lovel=31
xfout_hivel=97
xfout_lovel=77
</region>

<region>
hivel=71
key=D3
lovel=5
offset=1831
sample=Tenors_Line_Drum_6_Dreads_Hit_MP_D4_RR8.opus
xf_velcurve=gain
xfin_hivel=25
xfin_lovel=5
xfout_hivel=71
xfout_lovel=51
</region>

<region>
hivel=45
key=D3
lovel=0
sample=Tenors_Line_Drum_6_Dreads_Hit_P_D4_RR8.opus
xf_velcurve=gain
xfout_hivel=45
xfout_lovel=25
</region>
</group>

<group>
color=green
group_label=Alt_Hits_RR2
seq_length=2
seq_position=1

<region>
hivel=103
key=G4
lovel=78
offset=3993
sample=Tenors_Line_Drum_1_Dreads_Muted_Hit_F_D4_RR2.opus
</region>

<region>
hivel=127
key=G4
lovel=104
offset=3318
sample=Tenors_Line_Drum_1_Dreads_Muted_Hit_FF_D4_RR2.opus
</region>

<region>
hivel=77
key=G4
lovel=52
offset=3205
sample=Tenors_Line_Drum_1_Dreads_Muted_Hit_MF_D4_RR2.opus
</region>

<region>
hivel=51
key=G4
lovel=26
offset=3401
sample=Tenors_Line_Drum_1_Dreads_Muted_Hit_MP_D4_RR2.opus
</region>

<region>
hivel=25
key=G4
lovel=0
offset=2463
sample=Tenors_Line_Drum_1_Dreads_Muted_Hit_P_D4_RR2.opus
</region>

<region>
hivel=103
key=F#4
lovel=78
offset=4038
sample=Tenors_Line_Drum_2_Dreads_Muted_Hit_F_D4_RR2.opus
</region>

<region>
hivel=127
key=F#4
lovel=104
offset=2390
sample=Tenors_Line_Drum_2_Dreads_Muted_Hit_FF_D4_RR2.opus
</region>

<region>
end=35262
hivel=77
key=F#4
lovel=52
offset=2749
sample=Tenors_Line_Drum_2_Dreads_Muted_Hit_MF_D4_RR2.opus
</region>

<region>
hivel=51
key=F#4
lovel=26
offset=1325
sample=Tenors_Line_Drum_2_Dreads_Muted_Hit_MP_D4_RR2.opus
</region>

<region>
hivel=25
key=F#4
lovel=0
offset=3885
sample=Tenors_Line_Drum_2_Dreads_Muted_Hit_P_D4_RR2.opus
</region>

<region>
hivel=103
key=F4
lovel=78
offset=4241
sample=Tenors_Line_Drum_3_Dreads_Muted_Hit_F_D4_RR2.opus
</region>

<region>
hivel=127
key=F4
lovel=104
offset=3571
sample=Tenors_Line_Drum_3_Dreads_Muted_Hit_FF_D4_RR2.opus
</region>

<region>
hivel=77
key=F4
lovel=52
offset=2557
sample=Tenors_Line_Drum_3_Dreads_Muted_Hit_MF_D4_RR2.opus
</region>

<region>
hivel=51
key=F4
lovel=26
offset=2051
sample=Tenors_Line_Drum_3_Dreads_Muted_Hit_MP_D4_RR2.opus
</region>

<region>
hivel=25
key=F4
lovel=0
offset=5160
sample=Tenors_Line_Drum_3_Dreads_Muted_Hit_P_D4_RR2.opus
</region>

<region>
hivel=103
key=E4
lovel=78
offset=4255
sample=Tenors_Line_Drum_4_Dreads_Muted_Hit_F_D4_RR2.opus
</region>

<region>
hivel=127
key=E4
lovel=104
offset=5404
sample=Tenors_Line_Drum_4_Dreads_Muted_Hit_FF_D4_RR2.opus
</region>

<region>
hivel=77
key=E4
lovel=52
offset=4330
sample=Tenors_Line_Drum_4_Dreads_Muted_Hit_MF_D4_RR2.opus
</region>

<region>
hivel=51
key=E4
lovel=26
offset=3214
sample=Tenors_Line_Drum_4_Dreads_Muted_Hit_MP_D4_RR2.opus
</region>

<region>
hivel=25
key=E4
lovel=0
offset=4578
sample=Tenors_Line_Drum_4_Dreads_Muted_Hit_P_D4_RR2.opus
</region>

<region>
hivel=103
key=D#4
lovel=78
offset=5732
sample=Tenors_Line_Drum_5_Dreads_Muted_Hit_F_D4_RR2.opus
</region>

<region>
hivel=127
key=D#4
lovel=104
offset=4165
sample=Tenors_Line_Drum_5_Dreads_Muted_Hit_FF_D4_RR2.opus
</region>

<region>
hivel=77
key=D#4
lovel=52
offset=3833
sample=Tenors_Line_Drum_5_Dreads_Muted_Hit_MF_D4_RR2.opus
</region>

<region>
hivel=51
key=D#4
lovel=26
offset=3676
sample=Tenors_Line_Drum_5_Dreads_Muted_Hit_MP_D4_RR2.opus
</region>

<region>
hivel=25
key=D#4
lovel=0
offset=6023
sample=Tenors_Line_Drum_5_Dreads_Muted_Hit_P_D4_RR2.opus
</region>

<region>
hivel=103
key=D4
lovel=78
offset=2293
sample=Tenors_Line_Drum_6_Dreads_Muted_Hit_F_D4_RR2.opus
</region>

<region>
hivel=127
key=D4
lovel=104
offset=4387
sample=Tenors_Line_Drum_6_Dreads_Muted_Hit_FF_D4_RR2.opus
</region>

<region>
hivel=77
key=D4
lovel=52
offset=4254
sample=Tenors_Line_Drum_6_Dreads_Muted_Hit_MF_D4_RR2.opus
</region>

<region>
hivel=51
key=D4
lovel=26
offset=2834
sample=Tenors_Line_Drum_6_Dreads_Muted_Hit_MP_D4_RR2.opus
</region>

<region>
hivel=25
key=D4
lovel=0
offset=608
sample=Tenors_Line_Drum_6_Dreads_Muted_Hit_P_D4_RR2.opus
</region>
</group>

<group>
color=green
group_label=Alt_Hits_RR4
seq_length=2
seq_position=2

<region>
hivel=103
key=G4
lovel=78
offset=4657
sample=Tenors_Line_Drum_1_Dreads_Muted_Hit_F_D4_RR4.opus
</region>

<region>
hivel=127
key=G4
lovel=104
offset=4319
sample=Tenors_Line_Drum_1_Dreads_Muted_Hit_FF_D4_RR4.opus
</region>

<region>
hivel=77
key=G4
lovel=52
offset=2900
sample=Tenors_Line_Drum_1_Dreads_Muted_Hit_MF_D4_RR4.opus
</region>

<region>
hivel=51
key=G4
lovel=26
offset=1950
sample=Tenors_Line_Drum_1_Dreads_Muted_Hit_MP_D4_RR4.opus
</region>

<region>
hivel=25
key=G4
lovel=0
offset=3293
sample=Tenors_Line_Drum_1_Dreads_Muted_Hit_P_D4_RR4.opus
</region>

<region>
hivel=103
key=F#4
lovel=78
offset=4867
sample=Tenors_Line_Drum_2_Dreads_Muted_Hit_F_D4_RR4.opus
</region>

<region>
hivel=127
key=F#4
lovel=104
offset=4466
sample=Tenors_Line_Drum_2_Dreads_Muted_Hit_FF_D4_RR4.opus
</region>

<region>
hivel=77
key=F#4
lovel=52
offset=4556
sample=Tenors_Line_Drum_2_Dreads_Muted_Hit_MF_D4_RR4.opus
</region>

<region>
hivel=51
key=F#4
lovel=26
offset=3450
sample=Tenors_Line_Drum_2_Dreads_Muted_Hit_MP_D4_RR4.opus
</region>

<region>
hivel=25
key=F#4
lovel=0
offset=1316
sample=Tenors_Line_Drum_2_Dreads_Muted_Hit_P_D4_RR4.opus
</region>

<region>
hivel=103
key=F4
lovel=78
offset=4462
sample=Tenors_Line_Drum_3_Dreads_Muted_Hit_F_D4_RR4.opus
</region>

<region>
hivel=127
key=F4
lovel=104
offset=4190
sample=Tenors_Line_Drum_3_Dreads_Muted_Hit_FF_D4_RR4.opus
</region>

<region>
hivel=77
key=F4
lovel=52
offset=3090
sample=Tenors_Line_Drum_3_Dreads_Muted_Hit_MF_D4_RR4.opus
</region>

<region>
hivel=51
key=F4
lovel=26
offset=3961
sample=Tenors_Line_Drum_3_Dreads_Muted_Hit_MP_D4_RR4.opus
</region>

<region>
hivel=25
key=F4
lovel=0
offset=5285
sample=Tenors_Line_Drum_3_Dreads_Muted_Hit_P_D4_RR4.opus
</region>

<region>
hivel=103
key=E4
lovel=78
offset=4726
sample=Tenors_Line_Drum_4_Dreads_Muted_Hit_F_D4_RR4.opus
</region>

<region>
hivel=127
key=E4
lovel=104
offset=5456
sample=Tenors_Line_Drum_4_Dreads_Muted_Hit_FF_D4_RR4.opus
</region>

<region>
hivel=77
key=E4
lovel=52
offset=4306
sample=Tenors_Line_Drum_4_Dreads_Muted_Hit_MF_D4_RR4.opus
</region>

<region>
hivel=51
key=E4
lovel=26
offset=3640
sample=Tenors_Line_Drum_4_Dreads_Muted_Hit_MP_D4_RR4.opus
</region>

<region>
hivel=25
key=E4
lovel=0
offset=4051
sample=Tenors_Line_Drum_4_Dreads_Muted_Hit_P_D4_RR4.opus
</region>

<region>
hivel=103
key=D#4
lovel=78
offset=4912
sample=Tenors_Line_Drum_5_Dreads_Muted_Hit_F_D4_RR4.opus
</region>

<region>
hivel=127
key=D#4
lovel=104
offset=2914
sample=Tenors_Line_Drum_5_Dreads_Muted_Hit_FF_D4_RR4.opus
</region>

<region>
hivel=77
key=D#4
lovel=52
offset=5048
sample=Tenors_Line_Drum_5_Dreads_Muted_Hit_MF_D4_RR4.opus
</region>

<region>
hivel=51
key=D#4
lovel=26
offset=5568
sample=Tenors_Line_Drum_5_Dreads_Muted_Hit_MP_D4_RR4.opus
</region>

<region>
hivel=25
key=D#4
lovel=0
offset=6338
sample=Tenors_Line_Drum_5_Dreads_Muted_Hit_P_D4_RR4.opus
</region>

<region>
hivel=103
key=D4
lovel=78
offset=1707
sample=Tenors_Line_Drum_6_Dreads_Muted_Hit_F_D4_RR4.opus
</region>

<region>
hivel=127
key=D4
lovel=104
offset=6382
sample=Tenors_Line_Drum_6_Dreads_Muted_Hit_FF_D4_RR4.opus
</region>

<region>
hivel=77
key=D4
lovel=52
offset=4520
sample=Tenors_Line_Drum_6_Dreads_Muted_Hit_MF_D4_RR4.opus
</region>

<region>
hivel=51
key=D4
lovel=26
offset=1616
sample=Tenors_Line_Drum_6_Dreads_Muted_Hit_MP_D4_RR4.opus
</region>

<region>
hivel=25
key=D4
lovel=0
sample=Tenors_Line_Drum_6_Dreads_Muted_Hit_P_D4_RR4.opus
</region>
</group>